HIERARCHY
ROOT Hips
{
    OFFSET 0.000000 97.120003 0.000000
    CHANNELS 6 Xposition Yposition Zposition Yrotation Xrotation Zrotation
    JOINT RightUpLeg
    {
        OFFSET -11.000000 -0.000000 0.000000
        CHANNELS 3 Yrotation Xrotation Zrotation
        JOINT RightLeg
        {
            OFFSET 0.000000 -45.062000 0.000000
            CHANNELS 3 Yrotation Xrotation Zrotation
            JOINT RightFoot
            {
                OFFSET 0.000000 -42.057999 0.000000
                CHANNELS 3 Yrotation Xrotation Zrotation
                End Site
                {
                    OFFSET 0.000000 -10.000000 15.120000
                }
            }
        }
    }
    JOINT LeftUpLeg
    {
        OFFSET 11.000000 -0.000000 0.000000
        CHANNELS 3 Yrotation Xrotation Zrotation
        JOINT LeftLeg
        {
            OFFSET 0.000000 -45.062000 0.000000
            CHANNELS 3 Yrotation Xrotation Zrotation
            JOINT LeftFoot
            {
                OFFSET 0.000000 -42.057999 0.000000
                CHANNELS 3 Yrotation Xrotation Zrotation
                End Site
                {
                    OFFSET 0.000000 -10.000000 15.120000
                }
            }
        }
    }
    JOINT Spine
    {
        OFFSET 0.000000 8.120000 0.000000
        CHANNELS 3 Yrotation Xrotation Zrotation
        JOINT Spine1
        {
            OFFSET 0.000000 17.980000 0.000000
            CHANNELS 3 Yrotation Xrotation Zrotation
            JOINT Spine2
            {
                OFFSET 0.000000 12.760000 0.000000
                CHANNELS 3 Yrotation Xrotation Zrotation
                JOINT Neck
                {
                    OFFSET 0.000000 19.139999 0.000000
                    CHANNELS 3 Yrotation Xrotation Zrotation
                    JOINT Neck1
                    {
                        OFFSET 0.000000 4.250000 0.000000
                        CHANNELS 3 Yrotation Xrotation Zrotation
                        JOINT Head
                        {
                            OFFSET 0.000000 4.250000 0.000000
                            CHANNELS 3 Yrotation Xrotation Zrotation
                            End Site
                            {
                                OFFSET 0.000000 19.120001 0.000000
                            }
                        }
                    }
                }
                JOINT RightShoulder
                {
                    OFFSET -2.900000 13.340000 0.000000
                    CHANNELS 3 Yrotation Xrotation Zrotation
                    JOINT RightArm
                    {
                        OFFSET -16.100000 0.000000 0.000000
                        CHANNELS 3 Yrotation Xrotation Zrotation
                        JOINT RightForeArm
                        {
                            OFFSET -28.000000 0.000000 0.000000
                            CHANNELS 3 Yrotation Xrotation Zrotation
                            JOINT RightHand
                            {
                                OFFSET -26.000000 0.000000 0.000000
                                CHANNELS 3 Yrotation Xrotation Zrotation
                                JOINT RightHandThumb1
                                {
                                    OFFSET -1.937000 -0.484000 2.518000
                                    CHANNELS 3 Yrotation Xrotation Zrotation
                                    JOINT RightHandThumb2
                                    {
                                        OFFSET -3.872000 0.000000 0.000000
                                        CHANNELS 3 Yrotation Xrotation Zrotation
                                        JOINT RightHandThumb3
                                        {
                                            OFFSET -2.690000 0.000000 0.000000
                                            CHANNELS 3 Yrotation Xrotation Zrotation
                                            End Site
                                            {
                                                OFFSET -2.537000 0.000000 0.000000
                                            }
                                        }
                                    }
                                }
                                JOINT RightInHandIndex
                                {
                                    OFFSET -3.389000 0.535000 2.080000
                                    CHANNELS 3 Yrotation Xrotation Zrotation
                                    JOINT RightHandIndex1
                                    {
                                        OFFSET -5.485000 -0.096000 1.051000
                                        CHANNELS 3 Yrotation Xrotation Zrotation
                                        JOINT RightHandIndex2
                                        {
                                            OFFSET -3.806000 0.000000 0.000000
                                            CHANNELS 3 Yrotation Xrotation Zrotation
                                            JOINT RightHandIndex3
                                            {
                                                OFFSET -2.158000 0.000000 0.000000
                                                CHANNELS 3 Yrotation Xrotation Zrotation
                                                End Site
                                                {
                                                    OFFSET -1.898000 0.000000 0.000000
                                                }
                                            }
                                        }
                                    }
                                }
                                JOINT RightInHandMiddle
                                {
                                    OFFSET -3.556000 0.544000 0.796000
                                    CHANNELS 3 Yrotation Xrotation Zrotation
                                    JOINT RightHandMiddle1
                                    {
                                        OFFSET -5.441000 -0.088000 0.330000
                                        CHANNELS 3 Yrotation Xrotation Zrotation
                                        JOINT RightHandMiddle2
                                        {
                                            OFFSET -4.153000 0.000000 0.000000
                                            CHANNELS 3 Yrotation Xrotation Zrotation
                                            JOINT RightHandMiddle3
                                            {
                                                OFFSET -2.603000 0.000000 0.000000
                                                CHANNELS 3 Yrotation Xrotation Zrotation
                                                End Site
                                                {
                                                    OFFSET -2.076000 0.000000 0.000000
                                                }
                                            }
                                        }
                                    }
                                }
                                JOINT RightInHandRing
                                {
                                    OFFSET -3.539000 0.566000 -0.136000
                                    CHANNELS 3 Yrotation Xrotation Zrotation
                                    JOINT RightHandRing1
                                    {
                                        OFFSET -4.873000 -0.023000 -0.504000
                                        CHANNELS 3 Yrotation Xrotation Zrotation
                                        JOINT RightHandRing2
                                        {
                                            OFFSET -3.619000 0.000000 0.000000
                                            CHANNELS 3 Yrotation Xrotation Zrotation
                                            JOINT RightHandRing3
                                            {
                                                OFFSET -2.511000 0.000000 0.000000
                                                CHANNELS 3 Yrotation Xrotation Zrotation
                                                End Site
                                                {
                                                    OFFSET -1.952000 0.000000 0.000000
                                                }
                                            }
                                        }
                                    }
                                }
                                JOINT RightInHandPinky
                                {
                                    OFFSET -3.324000 0.494000 -1.264000
                                    CHANNELS 3 Yrotation Xrotation Zrotation
                                    JOINT RightHandPinky1
                                    {
                                        OFFSET -4.354000 -0.023000 -1.147000
                                        CHANNELS 3 Yrotation Xrotation Zrotation
                                        JOINT RightHandPinky2
                                        {
                                            OFFSET -2.898000 0.000000 0.000000
                                            CHANNELS 3 Yrotation Xrotation Zrotation
                                            JOINT RightHandPinky3
                                            {
                                                OFFSET -1.831000 0.000000 0.000000
                                                CHANNELS 3 Yrotation Xrotation Zrotation
                                                End Site
                                                {
                                                    OFFSET -1.730000 0.000000 0.000000
                                                }
                                            }
                                        }
                                    }
                                }
                            }
                        }
                    }
                }
                JOINT LeftShoulder
                {
                    OFFSET 2.900000 13.340000 0.000000
                    CHANNELS 3 Yrotation Xrotation Zrotation
                    JOINT LeftArm
                    {
                        OFFSET 16.100000 0.000000 0.000000
                        CHANNELS 3 Yrotation Xrotation Zrotation
                        JOINT LeftForeArm
                        {
                            OFFSET 28.000000 0.000000 0.000000
                            CHANNELS 3 Yrotation Xrotation Zrotation
                            JOINT LeftHand
                            {
                                OFFSET 26.000000 0.000000 0.000000
                                CHANNELS 3 Yrotation Xrotation Zrotation
                                JOINT LeftHandThumb1
                                {
                                    OFFSET 1.937000 -0.484000 2.518000
                                    CHANNELS 3 Yrotation Xrotation Zrotation
                                    JOINT LeftHandThumb2
                                    {
                                        OFFSET 3.872000 0.000000 0.000000
                                        CHANNELS 3 Yrotation Xrotation Zrotation
                                        JOINT LeftHandThumb3
                                        {
                                            OFFSET 2.690000 0.000000 0.000000
                                            CHANNELS 3 Yrotation Xrotation Zrotation
                                            End Site
                                            {
                                                OFFSET 2.537000 0.000000 0.000000
                                            }
                                        }
                                    }
                                }
                                JOINT LeftInHandIndex
                                {
                                    OFFSET 3.389000 0.535000 2.080000
                                    CHANNELS 3 Yrotation Xrotation Zrotation
                                    JOINT LeftHandIndex1
                                    {
                                        OFFSET 5.485000 -0.096000 1.051000
                                        CHANNELS 3 Yrotation Xrotation Zrotation
                                        JOINT LeftHandIndex2
                                        {
                                            OFFSET 3.806000 0.000000 0.000000
                                            CHANNELS 3 Yrotation Xrotation Zrotation
                                            JOINT LeftHandIndex3
                                            {
                                                OFFSET 2.158000 0.000000 0.000000
                                                CHANNELS 3 Yrotation Xrotation Zrotation
                                                End Site
                                                {
                                                    OFFSET 1.898000 0.000000 0.000000
                                                }
                                            }
                                        }
                                    }
                                }
                                JOINT LeftInHandMiddle
                                {
                                    OFFSET 3.556000 0.544000 0.796000
                                    CHANNELS 3 Yrotation Xrotation Zrotation
                                    JOINT LeftHandMiddle1
                                    {
                                        OFFSET 5.441000 -0.088000 0.330000
                                        CHANNELS 3 Yrotation Xrotation Zrotation
                                        JOINT LeftHandMiddle2
                                        {
                                            OFFSET 4.153000 0.000000 0.000000
                                            CHANNELS 3 Yrotation Xrotation Zrotation
                                            JOINT LeftHandMiddle3
                                            {
                                                OFFSET 2.603000 0.000000 0.000000
                                                CHANNELS 3 Yrotation Xrotation Zrotation
                                                End Site
                                                {
                                                    OFFSET 2.076000 0.000000 0.000000
                                                }
                                            }
                                        }
                                    }
                                }
                                JOINT LeftInHandRing
                                {
                                    OFFSET 3.539000 0.566000 -0.136000
                                    CHANNELS 3 Yrotation Xrotation Zrotation
                                    JOINT LeftHandRing1
                                    {
                                        OFFSET 4.873000 -0.023000 -0.504000
                                        CHANNELS 3 Yrotation Xrotation Zrotation
                                        JOINT LeftHandRing2
                                        {
                                            OFFSET 3.619000 0.000000 0.000000
                                            CHANNELS 3 Yrotation Xrotation Zrotation
                                            JOINT LeftHandRing3
                                            {
                                                OFFSET 2.511000 0.000000 0.000000
                                                CHANNELS 3 Yrotation Xrotation Zrotation
                                                End Site
                                                {
                                                    OFFSET 1.952000 0.000000 0.000000
                                                }
                                            }
                                        }
                                    }
                                }
                                JOINT LeftInHandPinky
                                {
                                    OFFSET 3.324000 0.494000 -1.264000
                                    CHANNELS 3 Yrotation Xrotation Zrotation
                                    JOINT LeftHandPinky1
                                    {
                                        OFFSET 4.354000 -0.023000 -1.147000
                                        CHANNELS 3 Yrotation Xrotation Zrotation
                                        JOINT LeftHandPinky2
                                        {
                                            OFFSET 2.898000 0.000000 0.000000
                                            CHANNELS 3 Yrotation Xrotation Zrotation
                                            JOINT LeftHandPinky3
                                            {
                                                OFFSET 1.831000 0.000000 0.000000
                                                CHANNELS 3 Yrotation Xrotation Zrotation
                                                End Site
                                                {
                                                    OFFSET 1.730000 0.000000 0.000000
                                                }
                                            }
                                        }
                                    }
                                }
                            }
                        }
                    }
                }
            }
        }
    }
}
MOTION
Frames: 4
Frame Time: 0.011111
0.000000 97.119995 0.000000 0.000000 0.000000 0.000000 0.000000 0.000000 0.000000 0.000000 0.000000 0.000000 0.000000 0.000000 0.000000 0.000000 0.000000 0.000000 0.000000 0.000000 0.000000 0.000000 0.000000 0.000000 0.000000 0.000000 0.000000 0.000000 0.000000 0.000000 0.000000 0.000000 0.000000 0.000000 0.000000 0.000000 0.000000 0.000000 0.000000 0.000000 0.000000 0.000000 0.000000 0.000000 0.000000 0.000000 0.000000 0.000000 0.000000 0.000000 0.000000 0.000000 0.000000 0.000000 0.000000 0.000000 0.000000 0.000000 0.000000 0.000000 0.000000 0.000000 0.000000 0.000000 0.000000 0.000000 0.000000 0.000000 0.000000 0.000000 0.000000 0.000000 0.000000 0.000000 0.000000 0.000000 0.000000 0.000000 0.000000 0.000000 0.000000 0.000000 0.000000 0.000000 0.000000 0.000000 0.000000 0.000000 0.000000 0.000000 0.000000 0.000000 0.000000 0.000000 0.000000 0.000000 0.000000 0.000000 0.000000 0.000000 0.000000 0.000000 0.000000 0.000000 0.000000 0.000000 0.000000 0.000000 0.000000 0.000000 0.000000 0.000000 0.000000 0.000000 0.000000 0.000000 0.000000 0.000000 0.000000 0.000000 0.000000 0.000000 0.000000 0.000000 0.000000 0.000000 0.000000 0.000000 0.000000 0.000000 0.000000 0.000000 0.000000 0.000000 0.000000 0.000000 0.000000 0.000000 0.000000 0.000000 0.000000 0.000000 0.000000 0.000000 0.000000 0.000000 0.000000 0.000000 0.000000 0.000000 0.000000 0.000000 0.000000 0.000000 0.000000 0.000000 0.000000 0.000000 0.000000 0.000000 0.000000 0.000000 0.000000 0.000000 0.000000 0.000000 0.000000 0.000000 0.000000 0.000000 0.000000 0.000000 0.000000 0.000000 0.000000 0.000000 0.000000 0.000000 0.000000 0.000000
-0.536807 97.121231 -0.609233 1.274872 -13.873044 0.353321 179.837662 164.092896 179.806458 178.962387 178.988327 -179.629761 179.946365 -176.924988 177.374573 179.358475 164.155945 -178.871506 178.731476 179.546371 179.441833 0.535619 -3.688164 -2.865497 0.092058 8.015644 0.089398 0.091921 7.861438 0.140119 0.399267 5.701069 0.238647 180.000000 -176.710251 179.674850 180.000000 -176.161942 179.663239 178.681641 -177.163849 179.865158 0.853982 0.004161 0.388212 9.562526 -5.078038 82.508553 2.423205 -1.476952 1.061895 173.382919 -177.305069 174.764084 50.125076 39.240089 11.281802 0.000000 -0.000000 9.602781 0.000005 -0.000002 6.395461 0.000000 -0.000000 0.000003 15.000000 0.000001 34.995079 180.000000 179.999985 -151.367676 180.000000 180.000000 -159.957382 0.000000 -0.000000 0.000003 0.000001 0.000000 35.420471 180.000000 180.000000 -144.579529 0.000001 0.000001 23.590029 0.000000 -0.000000 0.000003 170.000000 179.999985 -145.634293 180.000000 179.999985 -145.634277 0.000001 0.000003 22.887573 0.000000 -0.000000 0.000003 160.000015 179.999985 -159.965134 180.000000 180.000000 -149.947739 0.000000 0.000002 20.014812 176.563507 -178.483307 179.469940 168.404831 -172.646622 98.172554 178.140991 -177.014297 179.435455 11.676164 -3.854881 0.881484 122.505341 133.552704 162.319275 0.000007 0.000004 -7.022540 180.000000 179.999985 175.322983 0.000000 -0.000000 0.000000 165.000015 180.000000 152.197113 0.000000 0.000000 -22.747801 180.000000 180.000000 164.076523 0.000000 -0.000000 0.000000 180.000000 180.000000 146.380157 180.000000 180.000000 146.380142 180.000000 179.999985 157.609177 0.000000 -0.000000 0.000000 9.999998 -0.000000 -31.053284 180.000000 180.000000 148.946686 0.000002 -0.000001 -20.681494 0.000000 -0.000000 0.000000 19.999998 0.000002 -26.326200 180.000000 -180.000000 140.510712 180.000000 179.999985 153.700134
-0.534455 97.118546 -0.608227 1.269953 -13.878522 0.352491 179.823242 164.088730 179.800095 178.981430 178.984039 -179.625351 179.946487 -176.921036 177.370255 179.366669 164.150986 -178.870132 178.721054 179.539246 179.440765 0.544074 -3.697505 -2.860995 0.093649 8.019265 0.090417 0.092693 7.864981 0.142154 0.402402 5.703635 0.241792 0.000000 -3.289921 -0.332154 180.000000 -176.161774 179.655975 178.682755 -177.163681 179.860809 0.851819 -0.012954 0.378052 9.557045 -5.064702 82.507309 2.411593 -1.430380 1.053299 173.383469 -177.299911 174.767792 50.127621 39.227898 11.291547 0.000007 0.000003 9.610025 0.000003 -0.000000 6.400278 180.000000 -180.000000 179.999985 15.000000 0.000002 34.993649 0.000002 -0.000000 28.631186 0.000001 0.000003 20.041830 180.000000 -180.000000 179.999985 0.000000 -0.000000 35.424953 0.000000 -0.000000 35.424953 180.000000 180.000000 -156.406982 180.000000 -180.000000 179.999985 170.000000 180.000000 -145.628769 0.000000 -0.000000 34.371246 180.000000 -179.999985 -157.108780 180.000000 -180.000000 179.999985 160.000015 -180.000000 -159.956985 0.000001 0.000003 30.064564 180.000000 179.999985 -159.977005 176.553619 -178.478088 179.479523 168.414078 -172.645798 98.160431 178.137390 -177.035904 179.426392 11.672666 -3.856167 0.882358 122.484543 133.547882 162.298950 0.000004 -0.000008 -7.020203 180.000000 179.999985 175.324570 0.000000 -0.000000 0.000000 165.000000 -180.000000 152.199173 0.000000 0.000000 -22.746130 0.000000 -0.000000 -15.922293 0.000000 -0.000000 0.000000 180.000000 -180.000000 146.368546 180.000000 180.000000 146.368530 180.000000 180.000000 157.601456 0.000000 -0.000000 0.000000 9.999994 0.000003 -31.054165 180.000000 179.999985 148.945831 180.000000 179.999985 159.317917 0.000000 -0.000000 0.000000 19.999996 0.000000 -26.328175 180.000000 -179.999985 140.507767 180.000000 180.000000 153.698166
-0.531637 97.118073 -0.608919 1.262111 -13.890967 0.350193 179.811462 164.078888 179.794098 179.001236 178.979752 -179.619217 179.945618 -176.917511 177.367798 179.374802 164.142151 -178.865891 178.711151 179.529633 179.436996 0.554173 -3.704659 -2.857329 0.095585 8.025058 0.091196 0.094154 7.870631 0.143951 0.408835 5.707625 0.245066 180.000000 -176.710388 179.661972 180.000000 -176.162094 179.649918 178.680862 -177.163818 179.857285 0.853125 -0.029988 0.370775 9.547292 -5.054235 82.500031 2.395435 -1.374308 1.050840 173.382004 -177.295792 174.767838 50.131992 39.239182 11.299033 179.999985 -179.999985 -170.391678 0.000003 -0.000005 6.399136 0.000000 -0.000000 0.000000 15.000008 -0.000002 34.999470 0.000002 0.000000 28.635908 0.000000 -0.000000 20.045139 0.000000 -0.000000 0.000000 0.000000 0.000001 35.424938 180.000000 180.000000 -144.575058 0.000002 0.000000 23.593016 0.000000 -0.000000 0.000000 170.000000 -179.999985 -145.630768 0.000002 0.000001 34.369232 180.000000 179.999985 -157.110107 0.000000 -0.000000 0.000000 160.000000 -180.000000 -159.957672 0.000004 0.000002 30.063484 180.000000 -179.999985 -159.977722 176.542725 -178.474548 179.493103 168.427414 -172.643677 98.144302 178.129715 -177.056580 179.415115 11.666484 -3.852584 0.880405 122.500389 133.544220 162.307114 0.000006 0.000011 -7.023915 180.000000 -179.999985 175.322052 180.000000 -180.000000 180.000000 165.000015 -180.000000 152.201996 180.000000 -180.000000 157.256165 180.000000 180.000000 164.079315 180.000000 -180.000000 180.000000 180.000000 -180.000000 146.360214 180.000000 -180.000000 146.360184 0.000000 0.000000 -22.404114 180.000000 -180.000000 180.000000 9.999995 -0.000005 -31.062719 0.000000 0.000000 -31.062727 180.000000 180.000000 159.312210 180.000000 -180.000000 180.000000 19.999979 -0.000003 -26.339100 0.000003 0.000001 -39.508678 0.000000 0.000002 -26.312778
